<?xml version="1.0" standalone="no"?>
<!DOCTYPE svg PUBLIC "-//W3C//DTD SVG 20010904//EN"
 "http://www.w3.org/TR/2001/REC-SVG-20010904/DTD/svg10.dtd">
<svg version="1.0" xmlns="http://www.w3.org/2000/svg"
 width="500.000000pt" height="500.000000pt" viewBox="0 0 500.000000 500.000000"
 preserveAspectRatio="xMidYMid meet">

<g transform="translate(0.000000,500.000000) scale(0.100000,-0.100000)"
fill="#000000" stroke="none">
<path d="M2082 4304 c-18 -12 -22 -25 -22 -68 0 -28 -5 -57 -12 -64 -7 -7 -34
-12 -60 -12 -35 0 -54 -6 -68 -20 -14 -14 -20 -33 -20 -68 0 -26 -5 -53 -12
-60 -7 -7 -34 -12 -60 -12 -35 0 -54 -6 -68 -20 -19 -19 -20 -33 -20 -298 0
-207 3 -282 13 -295 8 -10 29 -17 60 -19 69 -3 87 -19 87 -77 0 -64 14 -80 73
-83 68 -3 87 -19 87 -74 0 -88 -12 -84 268 -84 191 0 252 -3 266 -13 13 -9 20
-31 24 -68 2 -30 9 -60 14 -66 6 -7 30 -13 55 -13 89 0 83 25 83 -365 0 -392
7 -365 -90 -365 -75 0 -90 -11 -90 -68 0 -69 -20 -92 -80 -92 -81 0 -80 -4
-80 274 0 193 -3 246 -14 262 -14 18 -29 19 -345 19 -257 0 -333 -3 -343 -13
-10 -10 -13 -71 -13 -263 0 -237 1 -251 19 -265 11 -8 37 -14 59 -14 62 0 77
-13 77 -68 0 -27 7 -57 16 -70 l15 -22 618 0 c701 0 651 -6 651 83 0 60 18 77
79 77 61 0 81 20 81 83 0 60 18 77 79 77 83 0 81 -11 81 361 0 376 2 369 -80
369 -63 0 -80 17 -80 80 0 60 -23 80 -92 80 -56 0 -68 15 -68 84 0 75 -6 77
-275 76 -261 -1 -255 -3 -255 82 0 60 -23 79 -92 74 -30 -2 -54 2 -67 11 -20
14 -21 23 -21 308 0 334 -5 315 84 315 56 0 76 24 76 92 0 54 15 68 75 68 75
0 75 -1 75 -183 0 -200 4 -210 80 -217 30 -3 61 -9 68 -13 7 -5 12 -29 12 -55
0 -27 7 -57 16 -70 15 -22 19 -22 230 -22 129 0 223 4 235 10 18 10 19 24 19
270 0 246 -1 260 -19 270 -11 5 -69 10 -130 10 -102 0 -111 2 -125 22 -9 12
-16 41 -16 65 0 75 22 72 -540 72 -428 0 -500 -2 -518 -15z"/>
<path d="M972 2480 c-29 -45 -58 -139 -67 -216 -9 -79 10 -207 46 -319 41
-126 56 -148 129 -200 65 -46 63 -53 -12 -36 -43 10 -43 10 -23 -28 23 -45 67
-76 152 -107 l78 -29 -64 -3 -64 -3 84 -87 c106 -110 122 -120 227 -147 91
-24 91 -23 -10 -41 -33 -5 -36 -9 -28 -25 25 -45 100 -88 198 -111 l97 -23
-65 -5 -65 -5 40 -25 c33 -20 57 -26 133 -30 l93 -5 -63 -24 -63 -25 40 -18
c40 -18 108 -20 163 -3 21 7 22 7 7 -21 -17 -32 -20 -74 -6 -74 5 0 26 19 46
42 35 41 36 42 32 15 -3 -18 2 -36 15 -50 l19 -22 -11 23 c-9 19 -8 28 5 48
31 47 54 46 119 -5 32 -25 65 -56 73 -68 9 -13 18 -21 22 -18 4 2 23 -9 42
-24 61 -50 172 -131 175 -128 6 5 -98 110 -143 145 -24 19 -43 40 -43 48 0 8
-6 14 -14 12 -14 -3 -136 86 -136 100 0 4 15 25 34 45 24 26 39 35 52 31 16
-5 16 -4 4 5 -19 14 -56 14 -81 1 -27 -15 -25 1 10 100 l28 81 -32 68 c-38 79
-82 151 -93 151 -4 0 -20 -21 -37 -48 l-30 -47 -3 63 -3 63 -72 75 -71 76 -12
-69 c-21 -124 -26 -128 -40 -26 -20 145 -29 168 -97 245 -34 39 -66 72 -72 72
-5 1 -19 -55 -31 -124 l-22 -125 -1 87 c-2 126 -15 176 -69 254 -26 37 -52 69
-57 71 -6 2 -21 -35 -35 -81 -13 -47 -27 -83 -31 -80 -3 2 -10 36 -14 76 -6
65 -11 79 -53 135 -30 41 -48 59 -53 51 -4 -7 -13 -40 -20 -75 -7 -35 -16 -60
-20 -56 -3 5 -17 51 -29 103 -22 89 -27 99 -80 156 -68 73 -93 121 -100 194
l-5 55 -23 -35z"/>
<path d="M4006 2484 c-3 -9 -6 -27 -6 -42 0 -41 -36 -105 -100 -174 -56 -61
-60 -69 -80 -159 -12 -52 -26 -98 -30 -102 -4 -5 -13 20 -20 55 -18 96 -21 98
-73 28 -40 -54 -46 -70 -52 -128 -10 -101 -15 -104 -41 -22 -36 114 -32 110
-68 68 -18 -20 -45 -61 -61 -90 -26 -47 -30 -66 -35 -168 l-5 -115 -12 65 c-7
36 -15 85 -19 110 -11 77 -15 77 -79 8 -71 -76 -92 -122 -107 -230 -6 -46 -15
-87 -19 -92 -7 -8 -25 68 -31 129 -3 30 -3 30 -75 -45 l-73 -74 0 -58 c0 -32
-4 -58 -9 -58 -4 0 -21 19 -36 41 -26 40 -27 41 -45 23 -10 -11 -39 -58 -65
-106 l-47 -88 25 -77 c39 -122 39 -122 7 -110 -15 6 -39 7 -56 2 l-29 -8 27
-6 c15 -3 39 -21 53 -40 14 -19 25 -36 25 -36 0 -9 -128 -99 -137 -97 -7 2
-13 -4 -13 -11 0 -8 -12 -22 -26 -31 -14 -10 -60 -51 -102 -93 -88 -87 -60
-77 69 25 43 34 83 62 89 62 5 0 10 4 10 8 0 4 32 34 71 65 74 61 90 64 124
27 11 -12 16 -29 13 -45 -3 -14 -1 -25 3 -25 12 0 22 47 15 67 -4 10 13 -1 37
-25 50 -49 64 -41 42 22 -12 34 -12 37 3 30 39 -16 118 -16 157 0 45 19 41 26
-30 55 l-50 20 81 -1 c65 -1 89 3 128 21 56 28 48 40 -29 42 -47 1 -45 3 53
26 97 24 107 28 160 78 l57 53 -61 7 c-60 7 -110 25 -70 25 11 0 56 10 100 22
80 21 82 22 184 122 l103 101 -68 5 -68 5 75 25 c89 30 127 54 158 100 22 33
23 35 5 38 -11 2 -38 -1 -61 -6 -23 -6 -42 -8 -42 -6 0 2 31 25 70 50 67 45
71 50 99 123 50 132 62 183 68 293 6 120 -6 202 -42 285 -26 57 -30 61 -39 37z"/>
</g>
</svg>
